<?xml version="1.0" standalone="no"?>
<!DOCTYPE svg PUBLIC "-//W3C//DTD SVG 20010904//EN"
 "http://www.w3.org/TR/2001/REC-SVG-20010904/DTD/svg10.dtd">
<svg version="1.0" xmlns="http://www.w3.org/2000/svg"
 width="512.000000pt" height="512.000000pt" viewBox="0 0 512.000000 512.000000"
 preserveAspectRatio="xMidYMid meet">

<g transform="translate(0.000000,512.000000) scale(0.100000,-0.100000)"
fill="#000000" stroke="none">
<path d="M3107 5110 c-52 -13 -91 -35 -166 -92 -138 -104 -267 -104 -411 1
-122 89 -158 99 -207 57 -27 -23 -27 -26 -25 -117 9 -345 131 -628 345 -800
27 -22 43 -39 36 -39 -7 0 -57 -27 -112 -60 -264 -160 -497 -374 -706 -650
-114 -151 -188 -271 -283 -460 l-78 -155 0 -479 0 -479 38 7 c262 41 565 -15
692 -130 24 -22 49 -53 57 -71 10 -26 13 -142 13 -573 l0 -540 843 0 c469 0
891 5 953 10 345 31 645 182 812 408 140 190 204 411 203 706 0 170 -11 276
-46 451 -143 706 -485 1317 -970 1733 -109 94 -263 203 -363 257 -29 15 -52
31 -52 34 0 4 24 25 54 49 176 137 301 429 322 752 7 104 6 106 -21 138 -45
54 -92 43 -212 -49 -138 -106 -269 -105 -416 2 -40 29 -91 61 -115 71 -52 23
-132 31 -185 18z m450 -1036 c-3 -3 -12 -4 -19 -1 -8 3 -5 6 6 6 11 1 17 -2
13 -5z m-684 -11 c-7 -2 -19 -2 -25 0 -7 3 -2 5 12 5 14 0 19 -2 13 -5z m630
0 c-7 -2 -19 -2 -25 0 -7 3 -2 5 12 5 14 0 19 -2 13 -5z m-262 -822 c26 -26
29 -37 29 -89 l0 -59 52 -6 c150 -18 283 -158 296 -312 5 -73 -7 -101 -50
-120 -61 -25 -127 17 -128 80 -1 74 -66 155 -137 170 l-33 7 0 -175 0 -174 50
-6 c109 -13 212 -89 266 -194 26 -52 29 -68 29 -153 0 -88 -3 -101 -33 -162
-51 -104 -151 -177 -264 -193 l-48 -7 0 -50 c0 -64 -21 -103 -63 -117 -71 -24
-117 20 -117 110 l0 56 -47 7 c-108 14 -222 95 -272 194 -11 21 -25 68 -32
104 -10 55 -9 68 4 94 43 83 157 61 172 -33 12 -72 15 -82 41 -113 28 -33 62
-53 107 -64 l27 -6 0 174 0 173 -47 7 c-107 14 -222 96 -271 193 -28 55 -45
146 -37 203 9 69 56 162 107 211 52 50 134 91 200 97 l48 5 0 62 c0 58 2 65
31 89 41 35 83 34 120 -3z m1571 -1572 c38 -20 49 -69 38 -168 -27 -240 -141
-440 -314 -555 -121 -80 -307 -139 -479 -152 l-96 -7 -30 31 c-46 45 -41 116
10 143 12 6 66 15 121 20 258 22 441 124 531 297 43 81 77 203 77 274 0 53 19
101 47 117 24 14 69 14 95 0z"/>
<path d="M3012 2889 c-56 -28 -92 -88 -92 -153 0 -86 53 -148 143 -170 l27 -6
0 175 c0 198 2 193 -78 154z"/>
<path d="M3270 2206 l0 -174 35 8 c85 19 144 106 131 193 -8 52 -55 113 -102
133 -66 28 -64 32 -64 -160z"/>
</g>
</svg>
